<svg xmlns="http://www.w3.org/2000/svg" xmlns:xlink="http://www.w3.org/1999/xlink" width="500" zoomAndPan="magnify" viewBox="0 0 375 374.999991" height="500" preserveAspectRatio="xMidYMid meet" version="1.0"><defs><g/><clipPath id="3aff3cf716"><path d="M 51 84 L 250.921875 84 L 250.921875 308.605469 L 51 308.605469 Z M 51 84 " clip-rule="nonzero"/></clipPath><clipPath id="962b8842d6"><path d="M 18.746094 94 L 77 94 L 77 308 L 18.746094 308 Z M 18.746094 94 " clip-rule="nonzero"/></clipPath></defs><g clip-path="url(#3aff3cf716)"><path fill="#ffffff" d="M 250.84375 249.945312 C 237.6875 255.5 224.46875 260.851562 211.234375 266.167969 L 191.355469 274.042969 C 188.039062 275.34375 184.757812 276.75 181.351562 277.773438 C 177.953125 278.828125 174.539062 279.828125 171.164062 280.957031 L 89.980469 307.328125 L 84.507812 309.105469 L 83.648438 303.417969 L 52.394531 96.679688 L 51.605469 91.4375 L 56.890625 91.082031 L 141.199219 85.386719 L 151.738281 84.65625 C 155.246094 84.351562 158.75 83.980469 162.285156 84.070312 L 183.460938 84.09375 C 197.578125 84.125 211.703125 84.28125 225.839844 84.558594 C 211.871094 86.730469 197.894531 88.785156 183.910156 90.71875 L 162.929688 93.585938 C 159.4375 94.152344 155.914062 94.257812 152.398438 94.425781 L 141.859375 95.121094 L 57.550781 100.816406 L 62.042969 95.21875 L 93.296875 301.957031 L 86.964844 298.046875 L 168.148438 271.675781 C 171.542969 270.609375 174.894531 269.410156 178.261719 268.265625 C 181.621094 267.09375 185.105469 266.304688 188.550781 265.402344 L 209.265625 260.097656 C 223.09375 256.621094 236.933594 253.183594 250.84375 249.945312 " fill-opacity="1" fill-rule="nonzero"/></g><path fill="#ffffff" d="M 101.976562 129.578125 L 95.980469 89.917969 C 94.179688 78.007812 97.160156 66.273438 104.371094 56.882812 C 111.585938 47.484375 122.167969 41.570312 134.160156 40.230469 C 158.71875 37.496094 181.71875 55.136719 185.414062 79.5625 L 191.40625 119.21875 L 181.757812 120.679688 L 175.765625 81.019531 C 172.84375 61.710938 154.691406 47.757812 135.242188 49.929688 C 125.910156 50.972656 117.695312 55.550781 112.109375 62.828125 C 106.527344 70.09375 104.226562 79.199219 105.628906 88.460938 L 111.625 128.117188 L 101.976562 129.578125 " fill-opacity="1" fill-rule="nonzero"/><path fill="#ffffff" d="M 173.984375 121.355469 C 175.027344 128.273438 181.519531 133.253906 188.476562 132.476562 C 195.4375 131.699219 200.230469 125.460938 199.183594 118.542969 C 198.136719 111.625 191.648438 106.644531 184.691406 107.421875 C 177.730469 108.195312 172.9375 114.4375 173.984375 121.355469 " fill-opacity="1" fill-rule="nonzero"/><path fill="#ffffff" d="M 94.199219 130.253906 C 95.246094 137.171875 101.734375 142.152344 108.691406 141.375 C 115.652344 140.597656 120.445312 134.359375 119.398438 127.441406 C 118.355469 120.523438 111.863281 115.542969 104.90625 116.320312 C 97.945312 117.097656 93.152344 123.332031 94.199219 130.253906 " fill-opacity="1" fill-rule="nonzero"/><g clip-path="url(#962b8842d6)"><path fill="#ffffff" d="M 43.460938 94.53125 C 43.890625 98.777344 44.230469 103.015625 44.507812 107.246094 C 44.832031 111.484375 45.019531 115.703125 45.238281 119.929688 C 45.3125 122.039062 45.53125 124.164062 45.484375 126.261719 C 45.445312 127.308594 45.226562 128.339844 45.101562 129.382812 C 44.960938 130.417969 44.875 131.460938 44.777344 132.503906 L 43.59375 145.007812 L 29.4375 295.066406 L 22.160156 290.371094 C 22.972656 289.921875 23.515625 289.664062 24.175781 289.355469 C 24.8125 289.058594 25.445312 288.785156 26.082031 288.523438 C 27.351562 288 28.636719 287.539062 29.933594 287.125 C 32.542969 286.320312 35.1875 285.632812 37.902344 285.144531 C 40.636719 284.757812 43.449219 285 46.183594 285.320312 C 48.929688 285.683594 51.628906 286.316406 54.214844 287.210938 C 59.402344 288.996094 64.019531 292 67.75 295.625 C 71.5 299.257812 74.410156 303.496094 76.660156 307.941406 C 73.296875 304.25 69.511719 301.058594 65.449219 298.617188 C 61.367188 296.191406 56.933594 294.703125 52.511719 294.128906 C 50.292969 293.863281 48.070312 293.828125 45.875 294.007812 C 43.671875 294.140625 41.523438 294.6875 39.367188 295.027344 C 37.191406 295.265625 35.011719 295.722656 32.90625 296.417969 C 31.851562 296.753906 30.804688 297.128906 29.789062 297.546875 C 29.28125 297.753906 28.78125 297.976562 28.292969 298.203125 C 27.835938 298.410156 27.265625 298.695312 27 298.84375 L 18.855469 303.332031 L 19.722656 294.148438 L 29.160156 194.113281 L 33.882812 144.089844 L 35.0625 131.585938 C 35.160156 130.542969 35.269531 129.503906 35.324219 128.457031 C 35.394531 127.414062 35.375 126.359375 35.53125 125.324219 C 35.878906 123.253906 36.492188 121.210938 36.957031 119.148438 C 37.964844 115.039062 38.9375 110.925781 40.050781 106.824219 C 41.113281 102.71875 42.242188 98.621094 43.460938 94.53125 " fill-opacity="1" fill-rule="nonzero"/></g><g fill="#ffffff" fill-opacity="1"><g transform="translate(105.778429, 206.366925)"><g><path d="M 12.015625 -40.5625 C 12.015625 -38.382812 12.863281 -36.367188 14.5625 -34.515625 C 16.269531 -32.660156 18.347656 -31.023438 20.796875 -29.609375 C 23.242188 -28.203125 25.675781 -26.769531 28.09375 -25.3125 C 30.519531 -23.851562 32.582031 -22.0625 34.28125 -19.9375 C 35.988281 -17.8125 36.84375 -15.46875 36.84375 -12.90625 C 36.84375 -8.851562 35.347656 -5.539062 32.359375 -2.96875 C 29.367188 -0.394531 25.328125 0.890625 20.234375 0.890625 C 15.148438 0.890625 10.109375 -0.0703125 5.109375 -2 L 5.109375 -5.484375 C 10.148438 -2.960938 14.4375 -1.703125 17.96875 -1.703125 C 21.507812 -1.703125 24.269531 -2.566406 26.25 -4.296875 C 28.226562 -6.023438 29.21875 -8.421875 29.21875 -11.484375 C 29.21875 -13.566406 28.398438 -15.457031 26.765625 -17.15625 C 25.128906 -18.863281 23.148438 -20.347656 20.828125 -21.609375 C 18.503906 -22.867188 16.179688 -24.164062 13.859375 -25.5 C 11.535156 -26.832031 9.554688 -28.523438 7.921875 -30.578125 C 6.296875 -32.628906 5.484375 -35.113281 5.484375 -38.03125 C 5.484375 -40.945312 6.78125 -43.664062 9.375 -46.1875 C 11.96875 -48.707031 15.835938 -49.96875 20.984375 -49.96875 C 24.335938 -49.96875 28.585938 -49.203125 33.734375 -47.671875 L 33 -42.625 C 26.320312 -45.5 20.609375 -46.9375 15.859375 -46.9375 C 13.296875 -45.695312 12.015625 -43.570312 12.015625 -40.5625 Z M 12.015625 -40.5625 "/></g></g></g><g fill="#ffffff" fill-opacity="1"><g transform="translate(147.000741, 206.366925)"><g><path d="M 23.421875 0 L 16.234375 0 L 16.234375 -45.515625 C 14.554688 -45.910156 12.875 -46.109375 11.1875 -46.109375 L 1.1875 -43.8125 L 0.734375 -49.078125 L 38.921875 -49.078125 L 38.546875 -43.8125 L 28.46875 -46.109375 C 26.789062 -46.109375 25.109375 -45.910156 23.421875 -45.515625 Z M 23.421875 0 "/></g></g></g><g fill="#ffffff" fill-opacity="1"><g transform="translate(186.666095, 206.366925)"><g><path d="M 28.984375 -49.96875 C 35.410156 -49.96875 40.722656 -47.851562 44.921875 -43.625 C 49.128906 -39.40625 51.234375 -33.535156 51.234375 -26.015625 C 51.234375 -21.171875 50.390625 -16.929688 48.703125 -13.296875 C 47.023438 -9.671875 44.828125 -6.867188 42.109375 -4.890625 C 36.816406 -1.035156 30.984375 0.890625 24.609375 0.890625 C 18.234375 0.890625 12.957031 -1.242188 8.78125 -5.515625 C 4.601562 -9.796875 2.515625 -15.691406 2.515625 -23.203125 C 2.515625 -27.109375 3.070312 -30.628906 4.1875 -33.765625 C 5.300781 -36.910156 6.757812 -39.46875 8.5625 -41.4375 C 10.363281 -43.414062 12.453125 -45.070312 14.828125 -46.40625 C 19.179688 -48.78125 23.898438 -49.96875 28.984375 -49.96875 Z M 14.09375 -8.453125 C 15.375 -6.273438 17.097656 -4.582031 19.265625 -3.375 C 21.441406 -2.164062 23.953125 -1.5625 26.796875 -1.5625 C 29.640625 -1.5625 32.171875 -2.273438 34.390625 -3.703125 C 36.617188 -5.140625 38.351562 -7.019531 39.59375 -9.34375 C 42.113281 -13.988281 43.375 -18.976562 43.375 -24.3125 C 43.375 -30.882812 42.0625 -36.175781 39.4375 -40.1875 C 36.519531 -44.6875 31.703125 -46.9375 24.984375 -46.9375 C 20.191406 -45.25 16.554688 -42.351562 14.078125 -38.25 C 11.609375 -34.15625 10.375 -29.507812 10.375 -24.3125 C 10.375 -17.988281 11.613281 -12.703125 14.09375 -8.453125 Z M 14.09375 -8.453125 "/></g></g></g><g fill="#ffffff" fill-opacity="1"><g transform="translate(240.418207, 206.366925)"><g><path d="M 13.9375 -23.421875 L 13.9375 0 L 6.671875 0 L 6.671875 -49.078125 L 22.6875 -49.078125 C 27.675781 -49.078125 31.765625 -47.960938 34.953125 -45.734375 C 38.140625 -43.515625 39.734375 -40.585938 39.734375 -36.953125 C 39.734375 -33.328125 38.460938 -30.460938 35.921875 -28.359375 C 33.378906 -26.253906 29.929688 -24.804688 25.578125 -24.015625 L 45.453125 0 L 36.84375 1.03125 L 19.640625 -23.421875 Z M 13.9375 -25.65625 L 18.6875 -25.65625 C 27.582031 -25.65625 32.03125 -29.164062 32.03125 -36.1875 C 32.03125 -37.363281 31.734375 -38.695312 31.140625 -40.1875 C 30.003906 -43.300781 27.582031 -45.351562 23.875 -46.34375 C 20.507812 -46.34375 17.195312 -45.921875 13.9375 -45.078125 Z M 13.9375 -25.65625 "/></g></g></g><g fill="#ffffff" fill-opacity="1"><g transform="translate(287.720061, 206.366925)"><g><path d="M 6.671875 0 L 6.671875 -49.078125 L 36.40625 -49.078125 L 35.65625 -44.109375 L 21.875 -46.40625 C 19.445312 -46.40625 16.773438 -45.988281 13.859375 -45.15625 L 13.859375 -27.140625 L 30.328125 -27.140625 L 30.328125 -24.3125 L 13.859375 -24.3125 L 13.859375 -2.671875 L 36.84375 -4.96875 L 36.109375 0 Z M 6.671875 0 "/></g></g></g><g fill="#ffffff" fill-opacity="1"><g transform="translate(108.906723, 232.318795)"><g><path d="M 4.84375 -9.5 L 10.34375 -9.5 L 10.34375 -8.5 L 4.84375 -8.5 L 4.84375 0 L 2.328125 0 L 2.328125 -17.171875 L 12.46875 -17.171875 L 12.46875 -15.4375 L 7.671875 -16.234375 C 6.804688 -16.234375 5.863281 -16.085938 4.84375 -15.796875 Z M 4.84375 -9.5 "/></g></g></g><g fill="#ffffff" fill-opacity="1"><g transform="translate(130.258174, 232.318795)"><g><path d="M 7.390625 -2.75 L 7.390625 -5.421875 C 6.148438 -5.335938 5.128906 -5.0625 4.328125 -4.59375 C 3.535156 -4.125 3.140625 -3.617188 3.140625 -3.078125 C 3.140625 -2.546875 3.273438 -2.082031 3.546875 -1.6875 C 3.828125 -1.300781 4.179688 -1.03125 4.609375 -0.875 C 5.179688 -0.976562 5.785156 -1.265625 6.421875 -1.734375 C 7.066406 -2.203125 7.390625 -2.539062 7.390625 -2.75 Z M 9.515625 -3.453125 C 9.515625 -2.222656 9.96875 -1.289062 10.875 -0.65625 L 9.515625 0.34375 L 7.421875 -1.5625 C 6.054688 -0.3125 4.789062 0.3125 3.625 0.3125 C 2.863281 0.3125 2.210938 0.0703125 1.671875 -0.40625 C 1.128906 -0.894531 0.859375 -1.503906 0.859375 -2.234375 C 0.859375 -2.972656 1.078125 -3.582031 1.515625 -4.0625 C 1.953125 -4.550781 2.535156 -4.925781 3.265625 -5.1875 C 4.515625 -5.65625 5.890625 -5.945312 7.390625 -6.0625 L 7.390625 -8.5 C 7.390625 -9.9375 6.5625 -10.65625 4.90625 -10.65625 C 3.945312 -10.65625 2.820312 -10.445312 1.53125 -10.03125 L 1.296875 -10.6875 C 1.640625 -10.957031 2.238281 -11.25 3.09375 -11.5625 C 3.957031 -11.875 4.773438 -12.03125 5.546875 -12.03125 C 6.328125 -12.03125 6.976562 -11.925781 7.5 -11.71875 C 8.03125 -11.507812 8.421875 -11.273438 8.671875 -11.015625 C 8.921875 -10.765625 9.113281 -10.410156 9.25 -9.953125 C 9.394531 -9.503906 9.472656 -9.148438 9.484375 -8.890625 C 9.503906 -8.628906 9.515625 -8.285156 9.515625 -7.859375 Z M 9.515625 -3.453125 "/></g></g></g><g fill="#ffffff" fill-opacity="1"><g transform="translate(150.649927, 232.318795)"><g><path d="M 4.390625 -10.953125 C 3.929688 -10.953125 3.5625 -10.78125 3.28125 -10.4375 C 3 -10.101562 2.859375 -9.722656 2.859375 -9.296875 C 2.859375 -8.867188 3.0625 -8.460938 3.46875 -8.078125 C 3.875 -7.691406 4.363281 -7.347656 4.9375 -7.046875 C 5.519531 -6.742188 6.09375 -6.425781 6.65625 -6.09375 C 7.226562 -5.769531 7.71875 -5.347656 8.125 -4.828125 C 8.53125 -4.304688 8.734375 -3.726562 8.734375 -3.09375 C 8.734375 -2.125 8.34375 -1.3125 7.5625 -0.65625 C 6.789062 -0.0078125 5.734375 0.3125 4.390625 0.3125 C 3.054688 0.3125 1.832031 0 0.71875 -0.625 L 0.71875 -1.609375 C 1.894531 -1.015625 2.957031 -0.71875 3.90625 -0.71875 C 4.863281 -0.71875 5.554688 -0.910156 5.984375 -1.296875 C 6.421875 -1.679688 6.640625 -2.117188 6.640625 -2.609375 C 6.640625 -3.097656 6.441406 -3.535156 6.046875 -3.921875 C 5.660156 -4.316406 5.1875 -4.660156 4.625 -4.953125 C 4.0625 -5.242188 3.503906 -5.550781 2.953125 -5.875 C 2.398438 -6.207031 1.925781 -6.632812 1.53125 -7.15625 C 1.144531 -7.675781 0.953125 -8.300781 0.953125 -9.03125 C 0.953125 -9.769531 1.25 -10.453125 1.84375 -11.078125 C 2.445312 -11.710938 3.367188 -12.03125 4.609375 -12.03125 C 5.859375 -12.03125 7.054688 -11.804688 8.203125 -11.359375 L 7.9375 -9.65625 C 6.65625 -10.34375 5.472656 -10.773438 4.390625 -10.953125 Z M 4.390625 -10.953125 "/></g></g></g><g fill="#ffffff" fill-opacity="1"><g transform="translate(169.174196, 232.318795)"><g><path d="M 8.140625 -11.984375 C 8.941406 -11.984375 9.648438 -11.6875 10.265625 -11.09375 C 10.890625 -10.507812 11.203125 -9.5 11.203125 -8.0625 L 11.203125 0 L 9.03125 0 L 9.03125 -7.8125 C 9.03125 -8.65625 8.878906 -9.285156 8.578125 -9.703125 C 8.273438 -10.128906 7.691406 -10.34375 6.828125 -10.34375 C 5.972656 -10.34375 5.082031 -9.882812 4.15625 -8.96875 L 4.15625 0 L 1.96875 0 L 1.96875 -17.71875 L 4.078125 -17.71875 L 4.078125 -10.0625 C 5.441406 -11.34375 6.796875 -11.984375 8.140625 -11.984375 Z M 8.140625 -11.984375 "/></g></g></g><g fill="#ffffff" fill-opacity="1"><g transform="translate(191.096258, 232.318795)"><g><path d="M 1.953125 0 L 1.953125 -11.71875 L 4.09375 -11.71875 L 4.09375 0 Z M 1.6875 -15.34375 C 1.6875 -15.71875 1.8125 -16.03125 2.0625 -16.28125 C 2.3125 -16.539062 2.617188 -16.671875 2.984375 -16.671875 C 3.359375 -16.671875 3.679688 -16.539062 3.953125 -16.28125 C 4.222656 -16.03125 4.359375 -15.722656 4.359375 -15.359375 C 4.359375 -14.992188 4.222656 -14.671875 3.953125 -14.390625 C 3.679688 -14.117188 3.363281 -13.984375 3 -13.984375 C 2.644531 -13.984375 2.335938 -14.113281 2.078125 -14.375 C 1.816406 -14.644531 1.6875 -14.96875 1.6875 -15.34375 Z M 1.6875 -15.34375 "/></g></g></g><g fill="#ffffff" fill-opacity="1"><g transform="translate(206.015228, 232.318795)"><g><path d="M 6.953125 -12.03125 C 8.472656 -12.03125 9.726562 -11.507812 10.71875 -10.46875 C 11.71875 -9.4375 12.21875 -8.015625 12.21875 -6.203125 C 12.21875 -5.046875 12.019531 -4.023438 11.625 -3.140625 C 11.226562 -2.253906 10.707031 -1.570312 10.0625 -1.09375 C 8.832031 -0.15625 7.460938 0.3125 5.953125 0.3125 C 4.441406 0.3125 3.1875 -0.203125 2.1875 -1.234375 C 1.195312 -2.273438 0.703125 -3.707031 0.703125 -5.53125 C 0.703125 -6.6875 0.894531 -7.703125 1.28125 -8.578125 C 1.675781 -9.460938 2.191406 -10.148438 2.828125 -10.640625 C 4.054688 -11.566406 5.429688 -12.03125 6.953125 -12.03125 Z M 6.4375 -0.578125 C 7.195312 -0.578125 7.84375 -0.867188 8.375 -1.453125 C 9.34375 -2.492188 9.828125 -3.875 9.828125 -5.59375 C 9.828125 -7.3125 9.53125 -8.648438 8.9375 -9.609375 C 8.351562 -10.566406 7.394531 -11.046875 6.0625 -11.046875 C 5.082031 -10.671875 4.335938 -10 3.828125 -9.03125 C 3.316406 -8.070312 3.0625 -6.914062 3.0625 -5.5625 C 3.0625 -4.207031 3.335938 -3.035156 3.890625 -2.046875 C 4.441406 -1.066406 5.289062 -0.578125 6.4375 -0.578125 Z M 6.4375 -0.578125 "/></g></g></g><g fill="#ffffff" fill-opacity="1"><g transform="translate(227.859478, 232.318795)"><g><path d="M 4.203125 -10.0625 C 4.929688 -10.75 5.566406 -11.25 6.109375 -11.5625 C 6.648438 -11.875 7.289062 -12.03125 8.03125 -12.03125 C 8.78125 -12.03125 9.46875 -11.734375 10.09375 -11.140625 C 10.726562 -10.554688 11.046875 -9.550781 11.046875 -8.125 L 11.046875 0 L 8.84375 0 L 8.84375 -7.859375 C 8.84375 -8.703125 8.691406 -9.335938 8.390625 -9.765625 C 8.085938 -10.191406 7.566406 -10.40625 6.828125 -10.40625 C 6.097656 -10.40625 5.25 -9.921875 4.28125 -8.953125 L 4.28125 0 L 2.078125 0 L 2.078125 -8.140625 C 2.078125 -9.316406 1.632812 -10.257812 0.75 -10.96875 L 2.078125 -11.953125 Z M 4.203125 -10.0625 "/></g></g></g><g fill="#ffffff" fill-opacity="1"><g transform="translate(249.703727, 232.318795)"><g/></g></g><g fill="#ffffff" fill-opacity="1"><g transform="translate(265.06363, 232.318795)"><g><path d="M 4.203125 -14.1875 C 4.203125 -13.425781 4.5 -12.71875 5.09375 -12.0625 C 5.6875 -11.414062 6.410156 -10.847656 7.265625 -10.359375 C 8.128906 -9.867188 8.984375 -9.367188 9.828125 -8.859375 C 10.671875 -8.347656 11.390625 -7.71875 11.984375 -6.96875 C 12.585938 -6.226562 12.890625 -5.410156 12.890625 -4.515625 C 12.890625 -3.097656 12.363281 -1.9375 11.3125 -1.03125 C 10.269531 -0.132812 8.859375 0.3125 7.078125 0.3125 C 5.296875 0.3125 3.535156 -0.0234375 1.796875 -0.703125 L 1.796875 -1.921875 C 3.554688 -1.035156 5.050781 -0.59375 6.28125 -0.59375 C 7.519531 -0.59375 8.484375 -0.894531 9.171875 -1.5 C 9.867188 -2.101562 10.21875 -2.941406 10.21875 -4.015625 C 10.21875 -4.742188 9.929688 -5.40625 9.359375 -6 C 8.785156 -6.601562 8.09375 -7.125 7.28125 -7.5625 C 6.46875 -8 5.65625 -8.453125 4.84375 -8.921875 C 4.03125 -9.390625 3.335938 -9.984375 2.765625 -10.703125 C 2.203125 -11.421875 1.921875 -12.289062 1.921875 -13.3125 C 1.921875 -14.332031 2.375 -15.28125 3.28125 -16.15625 C 4.1875 -17.039062 5.539062 -17.484375 7.34375 -17.484375 C 8.519531 -17.484375 10.003906 -17.210938 11.796875 -16.671875 L 11.546875 -14.921875 C 9.210938 -15.921875 7.210938 -16.421875 5.546875 -16.421875 C 4.648438 -15.984375 4.203125 -15.238281 4.203125 -14.1875 Z M 4.203125 -14.1875 "/></g></g></g><g fill="#ffffff" fill-opacity="1"><g transform="translate(288.360379, 232.318795)"><g><path d="M 4.546875 -2.28125 C 4.546875 -1.757812 4.644531 -1.367188 4.84375 -1.109375 C 5.050781 -0.847656 5.394531 -0.71875 5.875 -0.71875 C 6.363281 -0.71875 6.945312 -0.847656 7.625 -1.109375 L 7.625 -0.390625 C 6.625 0.078125 5.722656 0.3125 4.921875 0.3125 C 4.128906 0.3125 3.503906 0.09375 3.046875 -0.34375 C 2.585938 -0.789062 2.359375 -1.476562 2.359375 -2.40625 L 2.359375 -10.796875 L 0.265625 -11.203125 L 0.265625 -11.71875 L 2.359375 -11.71875 L 2.359375 -12.65625 L 4.546875 -14.234375 L 4.546875 -11.71875 L 7.625 -11.71875 L 7.625 -10.796875 L 4.546875 -10.796875 Z M 4.546875 -2.28125 "/></g></g></g><g fill="#ffffff" fill-opacity="1"><g transform="translate(305.769349, 232.318795)"><g><path d="M 6.953125 -12.03125 C 8.472656 -12.03125 9.726562 -11.507812 10.71875 -10.46875 C 11.71875 -9.4375 12.21875 -8.015625 12.21875 -6.203125 C 12.21875 -5.046875 12.019531 -4.023438 11.625 -3.140625 C 11.226562 -2.253906 10.707031 -1.570312 10.0625 -1.09375 C 8.832031 -0.15625 7.460938 0.3125 5.953125 0.3125 C 4.441406 0.3125 3.1875 -0.203125 2.1875 -1.234375 C 1.195312 -2.273438 0.703125 -3.707031 0.703125 -5.53125 C 0.703125 -6.6875 0.894531 -7.703125 1.28125 -8.578125 C 1.675781 -9.460938 2.191406 -10.148438 2.828125 -10.640625 C 4.054688 -11.566406 5.429688 -12.03125 6.953125 -12.03125 Z M 6.4375 -0.578125 C 7.195312 -0.578125 7.84375 -0.867188 8.375 -1.453125 C 9.34375 -2.492188 9.828125 -3.875 9.828125 -5.59375 C 9.828125 -7.3125 9.53125 -8.648438 8.9375 -9.609375 C 8.351562 -10.566406 7.394531 -11.046875 6.0625 -11.046875 C 5.082031 -10.671875 4.335938 -10 3.828125 -9.03125 C 3.316406 -8.070312 3.0625 -6.914062 3.0625 -5.5625 C 3.0625 -4.207031 3.335938 -3.035156 3.890625 -2.046875 C 4.441406 -1.066406 5.289062 -0.578125 6.4375 -0.578125 Z M 6.4375 -0.578125 "/></g></g></g><g fill="#ffffff" fill-opacity="1"><g transform="translate(327.613609, 232.318795)"><g><path d="M 3.84375 0 L 1.65625 0 L 1.65625 -11.71875 L 3.171875 -11.71875 L 3.765625 -9.546875 C 4.109375 -10.148438 4.65625 -10.71875 5.40625 -11.25 C 6.15625 -11.789062 6.929688 -12.125 7.734375 -12.25 L 7.984375 -10.453125 C 7.347656 -10.453125 6.625 -10.253906 5.8125 -9.859375 C 5.007812 -9.460938 4.351562 -9.019531 3.84375 -8.53125 Z M 3.84375 0 "/></g></g></g><g fill="#ffffff" fill-opacity="1"><g transform="translate(344.737273, 232.318795)"><g><path d="M 2.71875 -6.375 C 2.71875 -4.507812 3.132812 -3.164062 3.96875 -2.34375 C 4.8125 -1.519531 5.832031 -1.109375 7.03125 -1.109375 C 8.238281 -1.109375 9.351562 -1.34375 10.375 -1.8125 L 10.375 -0.90625 C 8.957031 -0.09375 7.597656 0.3125 6.296875 0.3125 C 4.617188 0.3125 3.257812 -0.195312 2.21875 -1.21875 C 1.1875 -2.238281 0.671875 -3.71875 0.671875 -5.65625 C 0.671875 -7.59375 1.242188 -9.140625 2.390625 -10.296875 C 3.546875 -11.453125 4.9375 -12.03125 6.5625 -12.03125 C 7.820312 -12.03125 8.875 -11.53125 9.71875 -10.53125 C 10.570312 -9.539062 11 -8.15625 11 -6.375 Z M 5.234375 -10.8125 C 4.628906 -10.519531 4.109375 -10.050781 3.671875 -9.40625 C 3.242188 -8.757812 2.960938 -8.007812 2.828125 -7.15625 L 8.890625 -7.15625 C 8.835938 -7.882812 8.671875 -8.503906 8.390625 -9.015625 C 8.109375 -9.535156 7.765625 -9.921875 7.359375 -10.171875 C 6.648438 -10.597656 5.941406 -10.8125 5.234375 -10.8125 Z M 5.234375 -10.8125 "/></g></g></g></svg>